<?xml version="1.0" encoding="UTF-8"?>
<!-- Generator: Adobe Illustrator 24.0.3, SVG Export Plug-In . SVG Version: 6.00 Build 0)  -->
<svg version="1.1" id="Calque_1" xmlns="http://www.w3.org/2000/svg" xmlns:xlink="http://www.w3.org/1999/xlink" x="0px" y="0px" viewBox="0 0 1000 200" style="enable-background:new 0 0 1000 200;" xml:space="preserve">
<style type="text/css">
	.st0{fill:#FFFFFF;}
	.st1{fill:#2AD2C9;}
</style>
<path class="st0" d="M162.1,0.6L108.1,107h27.9l6.7-13.9H186l6.9,13.9h28.8L167.6,0.6H162.1z M176.4,72.8h-24.1l1.2-2.5  c3.1-6.5,6.9-14.7,10.7-25h0.2c3.8,10.3,7.6,18.5,10.7,25L176.4,72.8z M98.5,0.6h3.2V107H75.9V72.1c0-5.6,0-12.5,0.2-18.7h-0.2  c-2.9,3.4-6.2,6.9-10.9,11.2L50.9,78.4h-1.2L35.7,64.6c-4.5-4.3-8-7.8-10.7-11.2h-0.4c0.2,6.2,0.4,13.1,0.4,18.7V107H0V0.6h3.3  l27.7,25c4.3,4,13.5,12.8,20.1,20.1h0.4c6.1-6.7,15.9-16.1,20.3-20.1L98.5,0.6z M276.4,86.7c8.5,0,15.7-2.9,21.3-8.3l14.1,18.1  c-9.8,8.5-21.5,13.6-36.2,13.6c-32.6,0-53.9-23.9-53.9-54.8c0-33,23-54.7,52.7-54.7c15.7,0,27.7,5.4,37.1,13.6l-14.3,18.2  c-5.5-5.1-12.5-8.5-21.4-8.5c-17,0-27.3,13.4-27.3,31.4C248.5,73.7,258.8,86.7,276.4,86.7 M398,27v24.3h39.4v21.9H398V107h-25.9V3.6  h76.4L443.4,27H398z M324.5,3.6h25.9V107h-25.9V3.6z"/>
<path class="st1" d="M375.2,128.3c-1,0-5.7,2.2-13,4.4c-0.3-15.1-0.5-28-0.5-38.6c0-1.3-1.2-2.5-3.7-3.4c-2.5-0.9-5.1-1.4-7.8-1.4  c-4.2,0-6.2,1-6.2,3.1v2.1c-3.6-2.1-6.8-3.2-9.6-3.2c-1.2,0-2.1,0.3-2.6,1c-4.9,6.8-11.5,20.9-19.7,42.5  c-8.2,21.6-12.3,36.6-12.3,44.9c0,1.5,1.9,3,5.8,4.7c3.9,1.6,7.2,2.4,10,2.4c1.6,0,2.5-0.4,2.6-1.3c0.6-6.4,2.4-14.8,5.2-25.3  c4.9-1.8,11.8-4.1,20.8-6.7c0,10.4-0.1,31.1,0.4,32.4c0.4,1.1,2.3,2.2,5.7,3.4c3.4,1.2,6.5,1.8,9.5,1.8c3.8,0,5.6-1.1,5.6-3.3  c0-0.1-0.1-1.7-0.4-4.8c-0.3-3.1-0.6-7.8-1-14.2c-0.4-6.4-0.8-13.2-1.1-20.4c8.5-2.1,16-3.9,21.4-4.8c0.9-0.2,1.4-0.8,1.4-2.4  c0-1.8-1.3-4.5-3.8-7.9C379.4,130,377.2,128.3,375.2,128.3 M344,138c-1.1,0.4-3.5,1.1-7.2,2.2c-3.6,1.1-6.4,2-8.3,2.5  c5.2-15.5,10.3-27.5,15.4-36V138z M443.7,99.9c3.8,1.9,5.7,3.5,5.7,4.9c0,0.2-14.7,23.9-22.5,41.2c-7.8,17.4-13.4,31.4-16.7,42.1  c-0.4,1.2-2.5,1.8-6.2,1.8c-3.2,0-6.4-0.6-9.5-1.7c-3.1-1.1-4.6-2.5-4.6-4.1c0-40.2-1.6-70.3-4.9-90.4c-0.2-1.6,1.2-2.4,4.5-2.4  c2.8,0,5.7,0.5,8.8,1.5c3.1,1,4.9,2.1,5.5,3.4c1.9,4.6,2.9,22.1,2.9,52.6c2.6-6.9,20-43.4,23.6-50.1c0.6-1.1,1.8-1.7,3.6-1.7  C436.6,97.1,439.9,98,443.7,99.9 M582.8,100.1c3.5,2,5.3,3.8,5.3,5.4c0,0.1-0.1,0.4-0.4,1.1c-4.2,12.5-8.2,27.9-12,46.1  c-3.8,18.2-5.7,32-5.7,41.4c0,1.3-1.4,2-4.2,2c-2.7,0-5.5-0.5-8.5-1.5c-3-1-4.8-2.2-5.5-3.6c-1.1-2.6-3.2-9.6-6-20.9  c-2.9-11.4-5.5-23.3-7.8-35.8c-5.3,20-7.9,38.4-7.9,55.1c0,1.6-1.5,2.4-4.4,2.4c-2.8,0-5.9-0.6-9.1-1.9c-3.2-1.2-4.8-2.6-4.8-4  c0-9.9,2.1-24.1,6.4-42.7c4.3-18.6,8.5-35,12.9-49.4c0.3-1,1.5-1.6,3.6-1.6c3,0,6.2,0.7,9.5,2.1c3.3,1.4,5,3.1,5.1,5  c0.3,11.2,3.2,29.2,8.7,53.8c2.9-17.4,11.3-53.8,12.4-54.8c1.1-1,2.4-1.5,3.8-1.5C576.4,97.1,579.3,98.1,582.8,100.1 M657.5,106.6  c-4.4,0-13,1.3-25.9,3.8c1,1,1.5,1.9,1.4,2.5v0.3c-3.4,12.5-6.7,26.4-9.9,41.8c-3,14.2-4.5,26.1-4.5,35.9c0,1.3-1.3,2-3.9,2  c-2.7,0-5.8-0.6-9.2-1.8c-3.4-1.2-5.7-2.6-6.7-4.1c-0.4-0.6,6.5-42.7,14.5-72.7c-5.3,1.3-11.2,3.1-11.3,3.1c-1.9,0-4.3-1.5-7.2-4.6  c-2.9-3.1-4.4-5.5-4.4-7.3c0-0.8,0.5-1.4,1.6-1.8c5-1.7,12.4-3.8,28.1-7.3c15.7-3.5,25.9-5.3,30.7-5.3c2.3,0,4.7,1.6,7.2,4.7  c2.6,3.1,3.9,5.8,3.9,8.1C662.1,105.7,660.6,106.6,657.5,106.6 M784.5,132.7c3.3,2.8,5,5.1,5,7c0,0.5-0.4,1.8-1.1,3.7  c-4.9,13.2-8.7,31.2-11.3,54.1c-0.1,1.3-1.2,2-3.5,1.9c-3.1,0-6.3-0.6-9.6-1.9c-3.3-1.3-4.9-2.8-4.9-4.7c0-2.4,2-11.9,6.1-28.4  c-4.4,4.4-8.4,8.6-12,12.8c-3.6,4.1-6,6.9-7.3,8.4c-1.3,1.4-2.6,2.6-4.1,3.5c-1.4,0.9-3.2,1.3-5.4,1.3c-3.4,0-7.1-0.8-11-2.4  c-3.9-1.6-6.8-3.4-8.5-5.4c-3-3.4-4.5-8.8-4.5-16.1c0-6.8,1.3-14.5,4-23.1c2.7-8.6,6.1-16.7,10.3-24.1c4.2-7.5,9.1-13.8,14.7-18.9  c5.6-5.1,11.1-7.7,16.4-7.7c7,0,13.6,2.2,19.7,6.6c6.1,4.4,9.1,9.8,9.1,16.4c0,1.8-0.2,3-0.6,3.6c-0.4,0.6-1.4,0.8-2.9,0.8  c-2.9,0-6.2-0.8-9.9-2.3c-3.7-1.6-5.5-3.3-5.5-5.3c0-3.1-0.9-5.9-2.6-8.3c-8,4.5-15.4,13.8-22.4,28c-7,14.2-10.5,28.1-10.5,41.8  c9-10,19-20.1,30-30.4c-2.1-1.3-4-2.8-5.8-4.5c-1.7-1.7-2.6-3.1-2.6-4c0-0.5,0.3-0.9,1-1.1c1.6-0.6,5.3-1.6,11-3.1  c5.7-1.5,9.3-2.2,10.6-2.2C778.4,128.6,781.2,130,784.5,132.7 M840.2,160.8c2,0,4.5,1.6,7.4,4.9c2.9,3.3,4.4,5.9,4.4,7.8  c0,0.8-0.2,1.3-0.7,1.5c-10.1,3.7-22.3,10.1-36.5,19.4c-0.8,0.5-1.6,0.8-2.4,0.8c-2.4,0-5.7-1.6-9.8-4.7c-4.1-3.1-6.2-5.6-6.2-7.4  c0-6.5,1.6-16.1,4.9-28.8c3.2-12.7,7-25,11.2-36.8c-2.3-1.3-4.4-2.9-6.4-4.8c-2-1.9-3-3.6-3-4.8c0-0.6,0.3-1.1,1-1.5  c3.2-1.5,10.3-3.9,21.3-6.9c11-3.1,19.3-5,24.9-5.7c0.4-0.8,7.5,0.7,9.7,4.3c2.2,3.6,3.4,6.5,3.4,8.7c0,1-0.5,1.5-1.5,1.6  c-8.5,0.9-18,2.7-28.3,5.3c-1.9,4.5-4.2,10.8-6.8,18.7c6.4-2.1,10.3-3.1,11.6-3.1c1.6,0,3.9,1.6,6.9,4.8c2.9,3.2,4.4,5.6,4.4,7.3  c0,0.9-0.4,1.4-1.2,1.5c-4,0.5-8.6,1.7-13.9,3.4c-5.3,1.8-9.8,3.5-13.4,5.2c-2.3,8.3-3.9,15.5-4.8,21.5c4-2.7,8.9-5.4,14.5-8.2  C836.3,162.2,839.4,160.8,840.2,160.8 M917,97.4c3.6,2.8,6.1,6.1,7.6,9.9c1.4,3.8,2.1,7.7,2.1,11.9c0,4-0.5,6.4-1.4,7.2  c-2,1.8-6.1,2.8-12.3,2.8c-4.1,0-6.2-0.8-6.2-2.3c0-0.1,0-0.4,0.1-0.8c0-0.5,0.1-1.1,0.1-1.8c0-0.7,0.1-1.5,0.1-2.3  c0-9.2-3-15.1-8.9-17.8c-3.6,2.7-5.3,6.5-5.3,11.3c0,3.7,1.3,8.4,3.9,14.1c2.6,5.7,5.4,11,8.5,15.9c3.1,4.9,5.9,10.1,8.5,15.6  c2.6,5.5,3.9,9.9,3.9,13.4c0,3.8-1.6,7-4.8,9.8c-3.2,2.7-6.8,4.7-10.8,5.8c-4,1.1-7.9,1.7-11.8,1.7c-4.5,0-8.9-1-13.2-2.9  c-4.3-2-7.8-4.3-10.4-6.9c-2.7-2.6-4.8-5.1-6.4-7.4c-1.6-2.3-2.4-3.9-2.4-4.9c0-2.1,1.8-4.1,5.4-6.2c3.6-2.1,6.8-3.1,9.6-3.2  c1.3,0,2.2,0.5,2.8,1.4c2.9,4.6,6.3,8.6,10.2,12c3.9,3.4,7.4,5.1,10.4,5.1c1-2.6,0.4-6.6-1.8-11.9c-2.2-5.3-4.9-10.6-8.1-15.8  c-3.2-5.2-6.2-10.8-9-16.9c-2.8-6-4.2-10.8-4.2-14.5c0-4.4,0.9-8.3,2.8-11.7c1.9-3.4,4.3-6.2,7.3-8.2c3-2,6.2-3.6,9.8-4.7  c3.5-1.1,7.1-1.6,10.6-1.6C909,93.2,913.4,94.6,917,97.4 M702.4,94.3c0.1-0.7-0.5-1.4-1.7-2.1c-1.2-0.7-2.8-1.3-4.6-1.7  c-1.9-0.4-3.7-0.6-5.5-0.6c-2.5,0-4.2,0.3-5.1,0.9c-0.7,0.4-1.8,6.6-1.8,7c-3.1-1.9-6.3-2.8-9.5-2.8c-2.1,0-3.4,0.6-4,1.8  c-10.1,20.1-18,38.3-23.5,54.4c-5.6,16.2-8.3,26.6-8.3,31.4c0,1.5,1,2.9,2.9,4.1c1.9,1.3,4,2.2,6.1,2.7c2.2,0.6,4.1,0.8,5.7,0.8  c1,0,1.8-0.1,2.4-0.3c0.6-0.2,1-0.6,1.3-1.1c0.3-0.5,2.5-14,3.6-18.3c8.5-3.4,16.3-5.9,23.5-7.5c0.6,9.1,1.2,14.9,1.7,17.5  c0.4,2,1.9,3.6,4.5,4.6c2.6,1.1,5.4,1.6,8.5,1.6c4.9,0,7.3-0.8,7.3-2.4c0-0.1-4.5-39.6-4.5-62C701.3,110,701.7,100.6,702.4,94.3   M665.7,152.2c4.5-13.3,10.2-27,17.2-41.2c-0.2,5.8-0.1,29.9,0.2,36.4C679.4,148,673.6,149.6,665.7,152.2 M499.2,94.3  c0.1-0.7-0.5-1.4-1.7-2.1c-1.2-0.7-2.8-1.3-4.6-1.7c-1.9-0.4-3.7-0.6-5.5-0.6c-2.5,0-4.2,0.3-5.1,0.9c-0.7,0.4-1.8,6.6-1.8,7  c-3.1-1.9-6.3-2.8-9.5-2.8c-2.1,0-3.4,0.6-4,1.8c-10.1,20.1-18,38.3-23.5,54.4c-5.6,16.2-8.3,26.6-8.3,31.4c0,1.5,1,2.9,2.9,4.1  c1.9,1.3,4,2.2,6.1,2.7c2.2,0.6,4.1,0.8,5.7,0.8c1,0,1.8-0.1,2.4-0.3c0.6-0.2,1-0.6,1.3-1.1c0.3-0.5,2.5-14,3.6-18.3  c8.5-3.4,16.3-5.9,23.5-7.5c0.6,9.1,1.2,14.9,1.7,17.5c0.4,2,1.9,3.6,4.5,4.6c2.6,1.1,5.4,1.6,8.5,1.6c4.9,0,7.3-0.8,7.3-2.4  c0-0.1-4.5-39.6-4.5-62C498.1,110,498.5,100.6,499.2,94.3 M462.4,152.2c4.5-13.3,10.2-27,17.2-41.2c-0.2,5.8-0.1,29.9,0.2,36.4  C476.2,148,470.4,149.6,462.4,152.2 M982.2,136.3c3.4,1,5.6,2.7,4.2,12c-0.6,3.9-1.9,6.1-3.4,6.5c-0.4,0.1-0.9,0.1-1.7-0.1  c-10.2-2.8-23.8-4.8-40.9-6c-0.8-0.1-1.3-0.8-1.7-2.1c-0.7-2.4-0.8-5.5-0.2-9.3c0.6-3.8,1.7-5.9,3.2-6.3c1.5-0.4,7.5,0.1,18,1.5  C970.2,133.8,978.8,135.3,982.2,136.3 M940.4,84.1c-0.7,0.9-1.4,1.4-1.9,1.6c-1.7,0.5-3.8-0.5-6.3-3c-2.5-2.5-4.1-4.8-4.7-7  c-0.6-2,1.7-5.8,6.9-11.1c5.2-5.4,10.5-10.3,16.1-14.7c5.6-4.4,8.9-6.8,10.1-7.1c1.3-0.4,3.4,0.9,6.1,3.8c2.7,2.9,4.4,5.5,5.1,7.7  c0.4,1.3,0.2,2.2-0.5,2.7C956.1,68.5,945.8,77.6,940.4,84.1 M999.8,95.1c0.8,2.8-0.5,4.2-3.4,4.6c-2.6,0.5-5.9,1.3-9.9,2.4  c-6.2,1.8-12.4,3.9-18.4,6.1c-6,2.3-10.8,4.2-14.3,5.7c-3.5,1.5-5.4,2.3-5.6,2.4c-1.3,0.4-3-0.8-5.3-3.6c-2.2-2.8-3.7-5.4-4.4-7.8  c-0.5-1.6-0.2-2.7,0.7-3.2c3-1.7,8.8-4.3,17.4-7.6c8.6-3.3,15.7-5.8,21.5-7.5c4.5-1.3,8.8-2.3,12.9-2.9c1.3-0.2,2.9,1,4.8,3.6  C997.7,89.9,999,92.5,999.8,95.1"/>
</svg>