<svg width="125" height="140" viewBox="0 0 125 140" fill="none" xmlns="http://www.w3.org/2000/svg">
<path d="M32.4053 39C39.9738 47.5321 51.2801 56.7585 60 52.71C59.2 38.31 63.6667 39.71 66 42.21C73.1759 48.2443 89.1928 60.2789 96.9982 61.1678C96.9994 61.3483 97 61.529 97 61.71C97 90.4288 81.7777 113.71 63 113.71C44.2223 113.71 29 90.4288 29 61.71C29 53.5673 30.2237 45.8617 32.4053 39Z" fill="black"/>
<path d="M93.952 138.155C96.5107 131.064 95.6539 123.482 92.2086 117.398L87 121.214C89.2716 125.52 89.7991 130.779 88.0553 135.72L93.952 138.155Z" fill="black"/>
<path d="M102.626 113C107.252 120.853 108.443 130.762 105.067 140L99.1708 137.566C101.729 130.476 100.873 122.893 97.4274 116.809L102.626 113Z" fill="black"/>
<path d="M50.2593 125.972C51.157 122.536 54.2824 120 58 120H69C73.4183 120 77 123.582 77 128V129C77 133.418 73.4183 137 69 137H58C55.2419 137 52.8098 135.604 51.3715 133.481C31.8804 128.072 16.4159 108.749 11.5798 84H9C4.02942 84 0 79.9706 0 75V56C0 51.0294 4.02942 47 9 47H12.465C19.2146 19.7437 39.064 0 62.5 0C85.6484 0 105.298 19.2621 112.281 46H116C120.971 46 125 50.0294 125 55V74C125 78.9706 120.971 83 116 83H107.044C108.271 77.8617 109 71.4335 109 64.4585C109 51.9417 106.652 41.186 103.292 36.4853C94.9971 18.8244 79.8327 7 62.5 7C41.9161 7 24.3903 23.6762 17.7962 47H19V47.7358C17.7466 52.9037 17 59.4012 17 66.4585C17 72.9881 17.6392 79.0385 18.7275 84H16.788C21.3293 104.451 34.1021 120.499 50.2593 125.972Z" fill="black"/>
</svg>
