<svg width="75" height="82" viewBox="0 0 75 82" fill="none" xmlns="http://www.w3.org/2000/svg">
<g id="chrono">
<path id="cadran" d="M27.5 15C27.5 13.6193 28.6193 12.5 30 12.5H36C37.3807 12.5 38.5 13.6193 38.5 15C38.5 16.1412 39.3152 17.0936 40.3988 17.3458C52.7501 20.2213 62.3981 30.1409 64.8779 42.639C65.1146 43.8323 66.144 44.75 67.393 44.75H72.4726C73.8249 44.75 74.4867 46.3986 73.5099 47.3336L62.0372 58.3151C61.4572 58.8703 60.5428 58.8703 59.9628 58.3151L48.4901 47.3336C47.5133 46.3986 48.1751 44.75 49.5274 44.75H53.1806C54.7307 44.75 55.9731 43.3163 55.4954 41.7565C52.6134 32.3449 43.8567 25.5 33.5 25.5C20.7975 25.5 10.5 35.7975 10.5 48.5C10.5 61.2025 20.7975 71.5 33.5 71.5C36.8114 71.5 39.9607 70.7999 42.8067 69.5391C43.5834 69.1951 44.481 69.4524 44.8913 70.135L48.371 75.9235C48.8038 76.6435 48.5587 77.5521 47.8482 77.9177C43.3981 80.2073 38.3507 81.5 33 81.5C15.0507 81.5 0.5 66.9492 0.5 49C0.5 33.5964 11.2167 20.6945 25.6014 17.3458C26.6851 17.0935 27.5 16.1411 27.5 15ZM24 0.5H42C43.3807 0.5 44.5 1.61929 44.5 3V8C44.5 9.38071 43.3807 10.5 42 10.5H24C22.6193 10.5 21.5 9.38071 21.5 8V3C21.5 1.61929 22.6193 0.5 24 0.5ZM57.2521 14.3812L63.9334 20.4111C64.9584 21.3362 65.0394 22.917 64.1143 23.942L62.7743 25.4267C61.8492 26.4517 60.2684 26.5327 59.2434 25.6077L52.5621 19.5777C51.5371 18.6527 51.4561 17.0718 52.3812 16.0468L53.7212 14.5621C54.6462 13.5371 56.2271 13.4561 57.2521 14.3812Z" fill="#C4C4C4" stroke="#C4C4C4"/>
<rect id="aiguille" x="32.5" y="28.5" width="3" height="20" rx="1.5" fill="#C4C4C4" stroke="#777777"/>
<g id="rotor">
<circle cx="34" cy="48" r="4" fill="#C4C4C4"/>
<circle cx="34" cy="48" r="4" stroke="black"/>
</g>
</g>
</svg>
