<svg width="108" height="92" viewBox="0 0 108 92" fill="none" xmlns="http://www.w3.org/2000/svg">
<path d="M52.8615 9.90628C41.7639 -2.39657 22.7941 -3.37362 10.4912 7.72397L9.90629 8.2516C-1.2872 18.3485 -3.10533 34.9619 5.0159 47.1418C8.54452 53.35 14.0186 60.7812 20.7899 68.2217C32.8817 81.5085 45.3327 90.6742 51.609 91.3942C52.267 91.546 52.9905 91.63 53.7499 91.63C54.5926 91.63 55.391 91.5266 56.1049 91.3419C62.4935 90.3114 74.6923 81.2467 86.5458 68.2217C98.6223 54.9516 106.573 41.7111 106.719 35.3854C108.325 26.5491 105.962 17.0909 99.4813 9.90628C88.3837 -2.39657 69.4139 -3.37362 57.111 7.72397L56.5261 8.2516C55.5537 9.12877 54.652 10.0551 53.8214 11.0235C53.5121 10.6454 53.1922 10.2729 52.8615 9.90628Z" fill="#0A2D82"/>
</svg>
