<svg width="68" height="83" viewBox="0 0 68 83" fill="none" xmlns="http://www.w3.org/2000/svg">
<g id="Group 1">
<path id="body" d="M0 67.4536C1.4364 42.7938 13.4065 32.0722 22.0249 31C12.9277 49 33.0374 62 43.5711 70.5C43.5711 70.5 45.9651 72.5 46.9227 74C47.8803 75.5 47.8803 78 47.8803 78C47.8803 78 48.3591 83 47.4015 83H13.4065C12.4489 71.2062 16.7581 57.268 18.6733 51.9072C19.0564 47.1897 17.5561 47.0825 16.7581 47.6186C13.4654 54.03 4.77248 66.9175 1.4364 67.9897C1.11718 68.0923 0.478802 67.9897 0 67.4536Z" fill="#0A2D82"/>
<circle id="head" cx="29" cy="13" r="13" fill="#0A2D82"/>
<path id="heart" d="M66.1767 47.3367C63.1807 53.5587 47.0234 67.0398 46.5419 67.5199L46.0604 68C33.5412 58.8782 27.541 51.5245 24.7747 46.7962C21.4042 41.0351 22.407 28.9233 31.5158 28.0726C42.002 27.0932 44.5089 36.2945 45.4719 39.6552C46.0604 37.2547 49.8055 27.7073 59.4356 28.613C69.4403 29.554 69.1727 41.1147 66.1767 47.3367Z" fill="#CD3F3F"/>
</g>
</svg>
