<svg width="89" height="82" viewBox="0 0 89 82" fill="none" xmlns="http://www.w3.org/2000/svg">
<g id="home">
<path id="home_2" fill-rule="evenodd" clip-rule="evenodd" d="M38.8579 2.30466C41.9798 -0.768219 47.0202 -0.768219 50.1421 2.30466L86.6211 38.2108C91.689 43.1991 88.1231 51.7664 80.979 51.7664H77.02V79.0262C77.02 80.6686 75.676 82 74.0181 82H55.0064V65.1485C55.0064 63.5061 53.6625 62.1747 52.0046 62.1747H36.9954C35.3375 62.1747 33.9935 63.5061 33.9935 65.1485V82H14.9819C13.324 82 11.98 80.6686 11.98 79.0262V51.7664H8.02096C0.876915 51.7664 -2.68894 43.1991 2.3789 38.2108L15 25.7879V9C15 7.34314 16.3431 6 18 6H26C27.6569 6 29 7.34314 29 9V12.0078L38.8579 2.30466ZM21 38C21 36.3431 22.3431 35 24 35H33C34.6569 35 36 36.3431 36 38V43C36 44.6569 34.6569 46 33 46H24C22.3431 46 21 44.6569 21 43V38ZM56 35C54.3431 35 53 36.3431 53 38V43C53 44.6569 54.3431 46 56 46H65C66.6569 46 68 44.6569 68 43V38C68 36.3431 66.6569 35 65 35H56Z" fill="#0A2D82"/>
<rect id="volet-gauche" x="19" y="23" width="19" height="11" rx="2" fill="#0A2D82"/>
<rect id="volet-droite" x="51" y="23" width="19" height="11" rx="2" fill="#0A2D82"/>
<path id="porte-droite" d="M56 82L56 59C56 57.8954 56.8954 57 58 57L70 57C71.1046 57 72 57.8954 72 59L72 82L56 82Z" fill="#0A2D82"/>
<path id="porte-gauche" d="M17 82L17 59C17 57.8954 17.8954 57 19 57L31 57C32.1046 57 33 57.8954 33 59L33 82L17 82Z" fill="#0A2D82"/>
</g>
</svg>
