<svg width="132" height="73" viewBox="0 0 132 73" fill="none" xmlns="http://www.w3.org/2000/svg">
<path d="M116.221 39.8955C115.743 39.6194 115.131 39.7833 114.855 40.2616L109.855 48.9218L100.329 43.4218C99.8503 43.1457 99.2387 43.3095 98.9626 43.7878C98.6865 44.2661 98.8503 44.8777 99.3286 45.1539L108.855 50.6539L103.355 60.1801C103.079 60.6585 103.243 61.2701 103.721 61.5462C104.199 61.8224 104.811 61.6585 105.087 61.1801L110.587 51.6539L119.247 56.6539C119.725 56.93 120.337 56.7661 120.613 56.2879C120.889 55.8095 120.726 55.1979 120.247 54.9218L111.587 49.9218L116.587 41.2616C116.863 40.7833 116.699 40.1717 116.221 39.8955Z" fill="#0A2D82"/>
<path d="M17.6502 39.4132C17.1458 39.6382 16.9194 40.2295 17.1444 40.7338L21.2188 49.8662L12.0865 53.9406C11.5822 54.1656 11.3557 54.7569 11.5807 55.2613C11.8058 55.7656 12.3971 55.9921 12.9014 55.767L22.0337 51.6926L26.5156 61.7382C26.7406 62.2425 27.3319 62.4689 27.8363 62.2439C28.3406 62.0189 28.5671 61.4276 28.3421 60.9233L23.8602 50.8777L33.9057 46.3958C34.4101 46.1708 34.6365 45.5795 34.4115 45.0752C34.1865 44.5708 33.5952 44.3444 33.0908 44.5694L23.0453 49.0513L18.9708 39.919C18.7458 39.4146 18.1545 39.1882 17.6502 39.4132Z" fill="#0A2D82"/>
<path fill-rule="evenodd" clip-rule="evenodd" d="M73 0C71.3431 0 70 1.34314 70 3C70 4.65686 71.3431 6 73 6H80.9716L85.6901 14H24C20.6863 14 18 16.6863 18 20C18 21.6569 19.3431 23 21 23H31.2144C37.2909 24.2339 43.6433 29.2546 47.3978 36.4568C49.8375 41.1369 50.7533 45.9189 50.2853 50H44.9946C44.7287 37.8045 34.7593 28 22.5 28C10.0736 28 0 38.0736 0 50.5C0 62.9264 10.0736 73 22.5 73C33.0291 73 41.8689 65.7678 44.3229 56H71.0711C73.3078 56 75.2553 54.7614 76.265 52.9327L76.2742 52.938L92.1497 24.9522L96.4192 32.1909C90.7164 36.2725 87 42.9523 87 50.5C87 62.9264 97.0736 73 109.5 73C121.926 73 132 62.9264 132 50.5C132 38.0736 121.926 28 109.5 28C106.9 28 104.403 28.441 102.08 29.2523L85.961 1.92371C85.8167 1.67914 85.6449 1.46094 85.4517 1.27069C84.9085 0.501953 84.0129 0 83 0H73ZM35.9909 50H27.3508C27.0905 49.3577 26.6816 48.7319 26.1317 48.182C24.3744 46.4246 21.8417 46.108 20.4749 47.4749C20.1289 47.8208 19.8908 48.2414 19.7566 48.7052C19.2829 49.4729 19 50.444 19 51.5C19 53.9853 20.567 56 22.5 56C22.6174 56 22.7335 55.9926 22.8479 55.978C22.9721 55.9925 23.0984 56 23.2264 56H34.8325C32.7268 60.7145 27.9971 64 22.5 64C15.0442 64 9 57.9558 9 50.5C9 43.0442 15.0442 37 22.5 37C29.7885 37 35.7279 42.7758 35.9909 50ZM96 50.5C96 46.2556 97.9587 42.4688 101.021 39.994L106.076 48.5636C106.026 48.8656 106 49.1789 106 49.5C106 51.9853 107.567 54 109.5 54C111.433 54 113 51.9853 113 49.5C113 48.6187 112.803 47.7967 112.462 47.1026C112.35 46.7508 112.197 46.4059 112.001 46.0743L106.808 37.2685C107.678 37.0924 108.578 37 109.5 37C116.956 37 123 43.0442 123 50.5C123 57.9558 116.956 64 109.5 64C102.044 64 96 57.9558 96 50.5ZM99.1623 4.00003C99.6623 2.26727 101.26 1 103.154 1C104.173 1 105 1.82654 105 2.84616V14.1538C105 15.1735 104.173 16 103.154 16C101.26 16 99.6623 14.7327 99.1623 13L99.1538 13C96.8597 13 95 11.1403 95 8.84616V8.15384C95 5.85974 96.8597 4 99.1538 4L99.1623 4.00003Z" fill="#0A2D82"/>
</svg>
