<svg width="82" height="73" viewBox="0 0 82 73" fill="none" xmlns="http://www.w3.org/2000/svg">
<g id="pouce">
<path id="main" fill-rule="evenodd" clip-rule="evenodd" d="M51 31V10V8.11007C51 8.04928 50.9507 8 50.8899 8V8C50.8376 8 50.7925 7.96289 50.7816 7.91168C49.8212 3.39127 45.8067 0 41 0C36.1933 0 32.1788 3.39127 31.2184 7.91168C31.2075 7.96289 31.1624 8 31.1101 8V8C31.0493 8 31 8.04928 31 8.11007V10V18C31 19.1046 30.1046 20 29 20H15H13.063C13.0282 20 13 20.0282 13 20.063V20.063C13 20.0949 12.9759 20.1218 12.9443 20.1257C6.58982 20.9095 1.50351 25.2753 0.280706 30.8872C0.266428 30.9527 0.208615 31 0.141551 31V31C0.0633745 31 0 31.0634 0 31.1416V33.5V59.5V60.9514C0 60.9783 0.0217487 61 0.0485771 61V61C0.0731153 61 0.0938053 61.0184 0.0968826 61.0428C0.829345 66.8373 5.63791 71.5186 11.8789 72.7074C11.9488 72.7207 12 72.7816 12 72.8527V72.8527C12 72.9341 12.0659 73 12.1473 73H15H31H37H49C50.1046 73 51 72.1046 51 71V61V31Z" fill="#C4C4C4"/>
<path id="manche" fill-rule="evenodd" clip-rule="evenodd" d="M82 28C82 26.8954 81.1046 26 80 26H59C57.8954 26 57 26.8954 57 28V71C57 72.1046 57.8954 73 59 73H80C81.1046 73 82 72.1046 82 71V28ZM68 70C71.3137 70 74 67.3137 74 64C74 60.6863 71.3137 58 68 58C64.6863 58 62 60.6863 62 64C62 67.3137 64.6863 70 68 70Z" fill="#C4C4C4"/>
</g>
</svg>
