<svg width="73" height="124" viewBox="0 0 73 124" fill="none" xmlns="http://www.w3.org/2000/svg">
<g id="Group 7">
<g id="sac-euro">
<path d="M29.2508 36.5903C26.9321 32.2014 20.4322 32.1231 17.2305 32.1338C17.0739 32.1343 16.9683 32.1346 16.9307 32.1867C16.8528 32.2944 17.0649 32.6231 17.7153 33.631C17.8633 33.8602 18.214 34.3108 18.69 34.9223L18.6907 34.9232C21.3218 38.3029 27.7766 46.5942 24.9684 49.5945C22.3201 52.424 20.0809 54.8441 18.1813 56.9244H54.841C51.8296 53.6707 49.1263 49.8376 48.0025 43.5225C46.8743 37.1826 48.161 35.8272 49.907 33.9881C51.1862 32.6407 52.7119 31.0336 53.7149 27.0162C45.365 26.6821 43.0785 31.5704 41.3603 35.2438C40.7063 36.6419 40.1347 37.8639 39.3424 38.5552C36.4686 41.0628 32.1493 42.0764 29.2508 36.5903Z" fill="#0A2D82"/>
<path d="M37.6835 101.138C39.3065 101.138 40.8425 100.706 42.2108 99.9363V94.2749C41.0808 95.6068 39.5291 96.4288 37.8167 96.4288C35.5485 96.4288 33.5621 94.9865 32.4645 92.8274H39.559L40.125 89.78H31.5967C31.5715 89.5071 31.5585 89.2298 31.5585 88.9489C31.5585 88.8453 31.5603 88.7423 31.5638 88.6397C31.5648 88.6086 31.5661 88.5775 31.5675 88.5464C31.5697 88.4957 31.5724 88.4452 31.5755 88.3948H40.3823L40.9483 85.3475H32.3304C33.3949 83.0356 35.4528 81.469 37.8167 81.469C39.1565 81.469 40.398 81.9722 41.416 82.8292L42.2632 78.2683C40.8817 77.4795 39.3272 77.0365 37.6835 77.0365C33.0727 77.0365 29.1637 80.5228 27.8075 85.3475H26.5002L25.9342 88.3948H27.3145C27.3033 88.624 27.2977 88.855 27.2977 89.0874C27.2977 89.3199 27.3033 89.5508 27.3145 89.78H26.5852L26.0191 92.8274H27.8075C29.1636 97.6521 33.0727 101.138 37.6835 101.138Z" fill="#0A2D82"/>
<path fill-rule="evenodd" clip-rule="evenodd" d="M58.7657 60.9213H14.5749C11.1839 64.7352 9.38497 66.955 8.28177 68.476C3.10666 74.3399 0 81.8454 0 90.0264C0 108.789 16.3416 124 36.5 124C56.6584 124 73 108.789 73 90.0264C73 82.4868 70.3615 75.521 65.8969 69.885C64.9581 68.4473 63.6691 66.6362 61.5127 63.9618C60.646 62.8867 59.7173 61.8927 58.7657 60.9213ZM36.5 111.01C48.7011 111.01 58.5921 101.615 58.5921 90.0264C58.5921 78.4374 48.7011 69.0427 36.5 69.0427C24.2989 69.0427 14.4079 78.4374 14.4079 90.0264C14.4079 101.615 24.2989 111.01 36.5 111.01Z" fill="#0A2D82"/>
</g>
<path id="euro" fill-rule="evenodd" clip-rule="evenodd" d="M41.9487 22.9176C40.6079 23.6884 39.1029 24.1206 37.5126 24.1206C32.9947 24.1206 29.1644 20.6316 27.8356 15.8032H26.0832L26.6379 12.7534H27.3525C27.3415 12.5241 27.336 12.293 27.336 12.0603C27.336 11.8277 27.3415 11.5966 27.3525 11.3672H26L26.5546 8.31744H27.8356C29.1644 3.489 32.9947 0 37.5126 0C39.1232 0 40.6464 0.443395 42.0001 1.2328L41.17 5.79724C40.1724 4.93961 38.9559 4.43597 37.6431 4.43597C35.3268 4.43597 33.3105 6.00374 32.2673 8.31744H40.7116L40.157 11.3672H31.5276C31.5166 11.5503 31.511 11.7352 31.511 11.9217C31.511 12.2028 31.5237 12.4803 31.5484 12.7534H39.9049L39.3503 15.8032H32.3987C33.4742 17.964 35.4206 19.4074 37.6431 19.4074C39.321 19.4074 40.8415 18.5848 41.9487 17.2518V22.9176Z" fill="#0A2D82"/>
</g>
</svg>
