<svg width="71" height="81" viewBox="0 0 71 81" fill="none" xmlns="http://www.w3.org/2000/svg">
<g id="support">
<circle id="head" cx="35.5" cy="21.5" r="21.5" fill="#C4C4C4"/>
<path id="micro" fill-rule="evenodd" clip-rule="evenodd" d="M26 31.6302V32C26 33.1046 26.8954 34 28 34H35C36.1046 34 37 33.1046 37 32V28C37 26.8954 36.1046 26 35 26H28C26.8954 26 26 26.8954 26 28V29.2038C23.4516 28.2926 20.8004 26.4513 18.576 23.8452C16.4778 21.387 15.1114 18.6606 14.5438 16.1268C14.0638 19.3026 15.3244 23.2822 18.1777 26.6251C20.4612 29.3005 23.3078 31.0325 26 31.6302Z" fill="white"/>
<path id="body" fill-rule="evenodd" clip-rule="evenodd" d="M70.9396 81C70.9797 80.3382 71 79.6714 71 79C71 60.2223 55.1061 45 35.5 45C15.8939 45 0 60.2223 0 79C0 79.6714 0.0203247 80.3382 0.0603943 81H70.9396Z" fill="#C4C4C4"/>
</g>
</svg>
