<svg width="110" height="94" viewBox="0 0 110 94" fill="none" xmlns="http://www.w3.org/2000/svg">
<g id="Group 6">
<g id="roues">
<path d="M17 67C13.6863 67 11 69.6863 11 73V88C11 91.3137 13.6863 94 17 94H22C25.3137 94 28 91.3137 28 88V73C28 69.6863 25.3137 67 22 67H17Z" fill="#0A2D82"/>
<path d="M88 67C84.6863 67 82 69.6863 82 73V88C82 91.3137 84.6863 94 88 94H93C96.3137 94 99 91.3137 99 88V73C99 69.6863 96.3137 67 93 67H88Z" fill="#0A2D82"/>
</g>
<path id="voiture-top" fill-rule="evenodd" clip-rule="evenodd" d="M11 25C11 11.1929 22.1929 0 36 0H73C86.8071 0 98 11.1929 98 25V31H104.5C106.985 31 109 33.0147 109 35.5C109 37.7334 107.373 39.5869 105.239 39.9395C108.115 41.9237 110 45.2418 110 49V68C110 74.0751 105.075 79 99 79H11C4.92487 79 0 74.0751 0 68V49C0 44.5628 2.62725 40.7392 6.41103 39H5.5C3.01472 39 1 36.9853 1 34.5C1 32.0147 3.01472 30 5.5 30H11V25ZM87 27V38H83C83 31.3726 77.8513 26 71.5 26C65.1487 26 60 31.3726 60 38H21V27C21 17.0589 29.0589 9 39 9H69C78.9411 9 87 17.0589 87 27ZM64 38C64 33.5817 67.3579 30 71.5 30C75.6421 30 79 33.5817 79 38H64ZM92 46C88.134 46 85 49.134 85 53C85 56.866 88.134 60 92 60H95C98.866 60 102 56.866 102 53C102 49.134 98.866 46 95 46H92ZM8 53C8 49.134 11.134 46 15 46H18C21.866 46 25 49.134 25 53C25 56.866 21.866 60 18 60H15C11.134 60 8 56.866 8 53Z" fill="#0A2D82"/>
</g>
</svg>
